<?xml version="1.0" encoding="UTF-8"?>
<svg width="324px" height="488px" viewBox="0 0 324 488" version="1.1" xmlns="http://www.w3.org/2000/svg" xmlns:xlink="http://www.w3.org/1999/xlink">
    <defs>
        <rect id="path-1" x="0" y="0" width="324" height="488"></rect>
    </defs>
    <g id="DeFacto" stroke="none" stroke-width="1" fill="none" fill-rule="evenodd">
        <g transform="translate(-710.000000, -310.000000)">
            <g transform="translate(710.000000, 310.000000)">
                <mask id="mask-2" fill="white">
                    <use xlink:href="#path-1"></use>
                </mask>
                <use id="Mask" fill="#F8F8F8" xlink:href="#path-1"></use>
                <g id="DeFacto-Logo" mask="url(#mask-2)" fill="#E6E6E6">
                    <g xmlns="http://www.w3.org/2000/svg">
                        <path style="fill:#E6E6E6;" d="M98.5,228.5c-3.8-0.9-7.6-0.5-11.5-0.4v29.7c0.2,0,0.3,0.1,0.4,0.1c2.7,0,5.3,0.1,8,0   c7.1-0.2,13.2-5.6,14.3-12.5C110.9,237.7,106.1,230.4,98.5,228.5z M107.9,244.1c-0.5,6.3-5.9,12.1-13.4,12c-1.9,0-3.8,0-5.7,0v-26   c0.1,0,0.1-0.1,0.2-0.1c2.5,0,5-0.1,7.5,0.1C103.3,230.7,108.5,237.3,107.9,244.1z"/>
                        <path style="fill:#E6E6E6;" d="M126.4,235.3c-6.1-1.2-12.2,2.7-13.6,8.9c-1.5,6.5,2.6,12.4,8.6,13.9c6.2,1.5,11.8-2.1,13.8-7.3   c-0.5-0.2-1.1-0.5-1.6-0.7c-2.7,6-8.2,7.2-12.1,6c-3.8-1.1-6.9-4.9-6.9-8.4h21.2C136.3,242.7,133.1,236.6,126.4,235.3z    M114.5,245.7c0.1-4.6,4.6-8.7,9.4-8.8c5.7-0.1,9.6,4.5,9.9,8.8H114.5z"/>
                        <polygon style="fill:#E6E6E6;" points="138.8,257.9 140.6,257.9 140.6,243 153.3,243 153.3,241.1 140.7,241.1 140.7,229.9 154.1,229.9    154.1,228.1 138.8,228.1  "/>
                        <path style="fill:#E6E6E6;" d="M177.7,235.3l-0.3-0.2l-0.3,0.2c0,0-0.2,0.1-0.6,0.3v0v4.6c-5.1-6.8-13.5-6.1-17.8-1.9   c-4.6,4.4-4.9,11.6-0.6,16.4c2.1,2.3,4.8,3.6,7.9,3.8c4.3,0.2,7.7-1.6,10.5-5.2v4.7h1.8v-22.3h0C178,235.4,177.8,235.3,177.7,235.3   z M166.8,256.5c-5.4,0-9.8-4.4-9.8-9.8c0-5.4,4.4-9.7,9.8-9.7c5.4,0,9.8,4.4,9.8,9.8C176.6,252.1,172.1,256.5,166.8,256.5z"/>
                        <path style="fill:#E6E6E6;" d="M201.5,243.5l0.4,0l0.2-0.3c0,0,0.1-0.2,0.4-0.5c0,0,0,0,0,0c0,0,0,0,0,0c0,0,0,0,0,0l0,0   c-1.8-4.8-7-8.4-12.9-7.5c-5.5,0.9-9.8,6-9.7,11.6c0.1,5.8,4.5,10.8,10,11.5c6.3,0.8,11.1-3.2,12.6-7.5c-0.5-0.2-1.1-0.5-1.6-0.7   c-2.7,6-8.2,7.2-12,6.1c-4-1.1-7-4.9-7.1-9.2c-0.1-4.4,2.6-8.2,6.9-9.6c1.9-0.6,3.8-0.6,5.6-0.1c3.1,0.9,5.2,3.1,6.5,6.1l0,0   C201.2,243.5,201.5,243.5,201.5,243.5z"/>
                        <path style="fill:#E6E6E6;" d="M225.1,235.1c-6.4,0-11.6,5.2-11.6,11.6s5.2,11.6,11.6,11.6s11.6-5.2,11.6-11.6S231.5,235.1,225.1,235.1z    M225.1,256.6c-5.4,0-9.8-4.4-9.8-9.8c0-5.4,4.4-9.8,9.8-9.8c5.4,0,9.8,4.4,9.8,9.8C234.9,252.2,230.5,256.6,225.1,256.6z"/>
                        <path style="fill:#E6E6E6;" d="M205.9,228.1L205.9,228.1l0,7.4h-3.8v1.9l3.9,0v14.8c-0.1,1.5,0.1,2.6,0.5,3.5c0.4,0.8,1,1.5,1.7,1.9   c0.7,0.4,1.5,0.7,2.4,0.8c0.4,0,0.7,0.1,1.3,0v-1.7c-0.3,0-0.7,0-0.8,0c-0.7-0.1-1.3-0.3-1.8-0.6c-0.5-0.3-0.8-0.8-1.1-1.4   c-0.2-0.6-0.4-1.4-0.4-2.5v-14.8l5.6,0v-1.9h-5.5v-7.4h0c0,0,0,0,0,0v0h0"/>
                        <polyline style="fill:#E6E6E6;" points="178.4,239.8 178.4,235.1 176.6,235.1 176.6,257.4  "/>
                    </g>
                </g>
            </g>
        </g>
    </g>
</svg>